<svg xmlns="http://www.w3.org/2000/svg" xmlns:svg="http://www.w3.org/2000/svg" style="shape-rendering:geometricPrecision;text-rendering:geometricPrecision;image-rendering:optimizeQuality" id="svg14" width="800" height="600" fill-rule="evenodd" clip-rule="evenodd" version="1.1" xml:space="preserve"><metadata id="metadata18"/><defs id="defs4"><style id="style2" type="text/css">.fil0{fill:#000}</style></defs><g id="g8" transform="translate(5.5854409e-5,-116.59512)" style="fill:#fff"><path id="path6" d="M 484.09,564.23 V 483 H 613.31 V 353.78 h 81.23 V 483 h 129.22 v 81.23 H 694.54 V 693.46 H 613.31 V 564.23 Z M 303.51,142.73 c 154.96,0 280.59,125.63 280.59,280.59 0,15.87 -1.33,31.42 -3.87,46.57 H 470.98 v 107.45 h 67.09 c -50.16,76.24 -136.47,126.58 -234.56,126.58 -154.97,0 -280.6,-125.63 -280.6,-280.6 0,-154.96 125.63,-280.59 280.6,-280.59 z M 187.7,494.56 c 0,152.33 231.61,152.33 231.61,0 z m 0,-240.69 c 13.58,-2.2 16.92,18.43 3.36,20.63 -18.31,2.99 -30.83,11.27 -34.03,30.41 -2.24,13.55 -22.89,10.15 -20.63,-3.44 4.68,-28.07 24.09,-43.17 51.3,-47.6 z m 228.25,20.63 c -13.56,-2.2 -10.22,-22.83 3.36,-20.63 27.21,4.43 46.62,19.53 51.3,47.6 2.26,13.59 -18.39,16.99 -20.63,3.44 -3.2,-19.14 -15.72,-27.42 -34.03,-30.41 z m -31.21,25.9 c 21.06,0 38.14,30.25 38.14,67.57 0,37.32 -17.08,67.57 -38.14,67.57 -21.08,0 -38.16,-30.25 -38.16,-67.57 0,-37.32 17.08,-67.57 38.16,-67.57 z m -162.46,0 c 21.07,0 38.15,30.25 38.15,67.57 0,37.32 -17.08,67.57 -38.15,67.57 -21.07,0 -38.15,-30.25 -38.15,-67.57 0,-37.32 17.08,-67.57 38.15,-67.57 z" class="fil0" style="fill:#fff"/></g></svg>