<svg xmlns="http://www.w3.org/2000/svg" xmlns:svg="http://www.w3.org/2000/svg" id="svg24" width="100" height="100" version="1.1" xml:space="preserve"><metadata id="metadata30"/><switch id="switch22" style="fill:#fff"><g id="g20" style="fill:#fff"><g id="g18" style="fill:#fff"><path id="path2" d="M80.2,18.2c0.8,0,1.5-0.7,1.5-1.5V13c0-0.8-0.7-1.5-1.5-1.5s-1.5,0.7-1.5,1.5v3.7C78.7,17.5,79.3,18.2,80.2,18.2z" style="fill:#fff"/><path id="path4" d="M73.1,18.4c0.2,0.6,0.8,0.9,1.4,0.9c0.2,0,0.4,0,0.6-0.1c0.8-0.3,1.2-1.2,0.8-2l-1.4-3.4c-0.3-0.8-1.2-1.2-2-0.8 c-0.8,0.3-1.2,1.2-0.8,2L73.1,18.4z" style="fill:#fff"/><path id="path6" d="M85.3,19.2c0.2,0.1,0.4,0.1,0.6,0.1c0.6,0,1.2-0.4,1.4-0.9l1.4-3.4c0.3-0.8,0-1.7-0.8-2c-0.8-0.3-1.7,0-2,0.8l-1.4,3.4 C84.1,18,84.5,18.9,85.3,19.2z" style="fill:#fff"/><path id="path8" d="M91.9,24.4h-1.7V23c0-0.8-0.6-1.4-1.4-1.4H71.6c-0.8,0-1.4,0.6-1.4,1.4v1.4h-1.7c-2.1,0-3.8,1.7-3.8,3.8v2.6 c0,2.4,1.5,4.6,3.7,5.5l6.1,2.4c0.1,0.1,0.3,0.3,0.4,0.4l2.1,1.8c0.3,0.3,0.6,0.7,0.6,1.2v2.7h-1.2c-1.6,0-2.8,1.3-2.8,2.8v1.4 c0,0.4,0.3,0.7,0.7,0.7h12c0.4,0,0.7-0.3,0.7-0.7v-1.4c0-1.6-1.3-2.8-2.8-2.8h-1.2v-2.7c0-0.5,0.2-0.9,0.6-1.2l2.1-1.8 c0.1-0.1,0.3-0.3,0.4-0.4l6.1-2.4c2.2-0.9,3.7-3.1,3.7-5.5v-2.6C95.7,26.1,94,24.4,91.9,24.4z M69.5,33.8c-1.2-0.5-2-1.6-2-2.9 v-2.6c0-0.6,0.5-1,1-1h1.7v1.5c0,2.1,0.5,4.1,1.3,5.9L69.5,33.8z M84.8,29.9L83,31.7c-0.1,0.1-0.1,0.2-0.1,0.3l0.4,2.4 c0.1,0.5-0.4,0.8-0.8,0.6l-2.2-1.2c-0.1,0-0.2,0-0.3,0L77.9,35c-0.4,0.2-0.9-0.1-0.8-0.6l0.4-2.4c0-0.1,0-0.2-0.1-0.3l-1.8-1.7 c-0.4-0.3-0.2-0.9,0.3-1l2.5-0.3c0.1,0,0.2-0.1,0.2-0.2l1.1-2.2c0.2-0.4,0.8-0.4,1,0l1.1,2.2c0,0.1,0.1,0.2,0.2,0.2l2.5,0.3 C85,29,85.2,29.6,84.8,29.9z M92.9,30.8c0,1.3-0.8,2.4-2,2.9l-2.1,0.8c0.9-1.8,1.3-3.8,1.3-5.9v-1.5h1.7c0.6,0,1,0.5,1,1V30.8z" style="fill:#fff"/><path id="path10" d="M16.2,55l-3.6,23.7c0,0,0,0.1,0,0.1h9.9l3.1-20.3l-6.5-2.1C18.1,56.1,17.1,55.6,16.2,55z" style="fill:#fff"/><path id="path12" d="M12.3,40.5l2.2-7.8l4.3-2.1l-1.6,15.6c-0.2,2.3,1.2,4.4,3.4,5.2l13.5,4.3l0.2,13.5h9.8L43.9,52c0-2.1-1.4-3.9-3.4-4.6 l-8.5-2.7L34.4,34l4.1,5.3c1,1.3,2.7,1.9,4.2,1.5l9.3-2.4c2.2-0.6,3.5-2.8,2.9-5c-0.6-2.2-2.8-3.5-5-2.9l-6.7,1.7l-5.1-6.6 c-0.2-0.2-0.3-0.4-0.5-0.6c-1.4-1.2-3-2-4.8-2.4L25.2,21c-2.3-0.5-4.7-0.2-6.7,0.8l-9.1,4.4c-1,0.5-1.8,1.4-2.1,2.5l-2.7,9.6 c-0.6,2.2,0.6,4.4,2.8,5c0.4,0.1,0.8,0.2,1.1,0.2C10.2,43.5,11.8,42.3,12.3,40.5z" style="fill:#fff"/><path id="path14" d="M88.9,54H71.4c-1.1,0-2,0.9-2,2v7.6H51.1c-1.1,0-2,0.9-2,2v7.6H30.7c-1.1,0-2,0.9-2,2v7.6H10.4c-1.1,0-2,0.9-2,2v10.5 c0,1.1,0.9,2,2,2h78.5c1.1,0,2-0.9,2-2V56C90.9,54.9,90,54,88.9,54z" style="fill:#fff"/><circle id="circle16" cx="32.3" cy="11.1" r="8.6" style="fill:#fff"/></g></g></switch></svg>
