<svg xmlns="http://www.w3.org/2000/svg" xmlns:svg="http://www.w3.org/2000/svg" xmlns:xlink="http://www.w3.org/1999/xlink" id="svg2985" width="512" height="512" version="1.1"><metadata id="metadata2991"/><defs id="defs2989"><linearGradient id="linearGradient3837"><stop id="stop3839" offset="0" style="stop-color:#fbf9d4;stop-opacity:1"/><stop id="stop3841" offset="1" style="stop-color:#fff;stop-opacity:1"/></linearGradient><linearGradient id="linearGradient3936"><stop id="stop3938" offset="0" style="stop-color:#f7991d;stop-opacity:1"/><stop id="stop3940" offset="1" style="stop-color:#f8b339;stop-opacity:1"/></linearGradient><linearGradient id="linearGradient3928"><stop style="stop-color:#000;stop-opacity:.12849163" id="stop3930" offset="0"/><stop style="stop-color:#000;stop-opacity:.0726257" id="stop3932" offset="1"/></linearGradient><linearGradient id="linearGradient3863"><stop id="stop3865" offset="0" style="stop-color:#ffc34a;stop-opacity:1"/><stop id="stop3867" offset="1" style="stop-color:#f9a62f;stop-opacity:1"/></linearGradient><linearGradient id="linearGradient3801"><stop id="stop3803" offset="0" style="stop-color:#fff;stop-opacity:.1"/><stop id="stop3805" offset="1" style="stop-color:#fff;stop-opacity:0"/></linearGradient><linearGradient id="linearGradient3890"><stop id="stop3892" offset="0" style="stop-color:#fff;stop-opacity:1"/><stop style="stop-color:#fff;stop-opacity:1" id="stop3900" offset=".292"/><stop style="stop-color:#d8dada;stop-opacity:1" id="stop3898" offset=".359"/><stop id="stop3894" offset="1" style="stop-color:#d8dada;stop-opacity:1"/></linearGradient><linearGradient id="linearGradient3864"><stop id="stop3866" offset="0" style="stop-color:#aad04a;stop-opacity:1"/><stop style="stop-color:#cfdc8d;stop-opacity:1" id="stop3872" offset=".298"/><stop id="stop3882" offset=".36" style="stop-color:#98bc40;stop-opacity:1"/><stop id="stop3868" offset="1" style="stop-color:#48873e;stop-opacity:1"/></linearGradient><linearGradient id="linearGradient3838"><stop id="stop3840" offset="0" style="stop-color:#61b647;stop-opacity:1"/><stop id="stop3842" offset="1" style="stop-color:#92c746;stop-opacity:1"/></linearGradient><linearGradient id="linearGradient3828"><stop style="stop-color:#000;stop-opacity:.13333334" id="stop3830" offset="0"/><stop style="stop-color:#000;stop-opacity:.11111111" id="stop3832" offset="1"/></linearGradient><linearGradient id="linearGradient3796"><stop id="stop3798" offset="0" style="stop-color:#000;stop-opacity:.05555556"/><stop id="stop3800" offset="1" style="stop-color:#000;stop-opacity:.10555556"/></linearGradient><linearGradient id="linearGradient3810" x1="335.739" x2="496.041" y1="344.358" y2="344.358" gradientUnits="userSpaceOnUse" xlink:href="#linearGradient3796"/><linearGradient id="linearGradient3880" x1="66.473" x2="453.377" y1="197.857" y2="197.857" gradientTransform="translate(0,14)" gradientUnits="userSpaceOnUse" xlink:href="#linearGradient3864"/><linearGradient id="linearGradient3896" x1="70.627" x2="435.788" y1="258.149" y2="258.149" gradientTransform="translate(0,14)" gradientUnits="userSpaceOnUse" xlink:href="#linearGradient3890"/><filter id="filter3916" width="2.476" height="1.515" x="-.738" y="-.257"><feGaussianBlur id="feGaussianBlur3918" stdDeviation="5.751"/></filter><radialGradient id="radialGradient3922" cx="283.496" cy="-10.862" r="193.2" fx="283.496" fy="-10.862" gradientTransform="matrix(-0.66393007,1.0294724,-1.0210616,-0.65850585,497.86851,-238.56237)" gradientUnits="userSpaceOnUse" xlink:href="#linearGradient3838"/><linearGradient id="linearGradient3843" x1="72.744" x2="73.038" y1="272.043" y2="196.94" gradientTransform="translate(-4.1012061,5.4616772)" gradientUnits="userSpaceOnUse" xlink:href="#linearGradient3837"/><filter style="color-interpolation-filters:sRGB" id="filter4143"><feFlood id="feFlood4145" flood-color="#FFF" flood-opacity=".5" result="flood"/><feComposite id="feComposite4147" in="flood" in2="SourceGraphic" operator="in" result="composite1"/><feGaussianBlur id="feGaussianBlur4149" in="composite" result="blur" stdDeviation=".7"/><feOffset id="feOffset4151" dx="1.5" dy="0" result="offset"/><feComposite id="feComposite4153" in="SourceGraphic" in2="offset" operator="over" result="fbSourceGraphic"/><feColorMatrix id="feColorMatrix4297" in="fbSourceGraphic" result="fbSourceGraphicAlpha" values="0 0 0 -1 0 0 0 0 -1 0 0 0 0 -1 0 0 0 0 1 0"/><feFlood id="feFlood4299" flood-color="#000" flood-opacity=".4" in="fbSourceGraphic" result="flood"/><feComposite id="feComposite4301" in="flood" in2="fbSourceGraphic" operator="in" result="composite1"/><feGaussianBlur id="feGaussianBlur4303" in="composite" result="blur" stdDeviation=".8"/><feOffset id="feOffset4305" dx=".4" dy="-2.5" result="offset"/><feComposite id="feComposite4307" in="fbSourceGraphic" in2="offset" operator="over" result="composite2"/></filter><linearGradient id="linearGradient2045" x1="72.744" x2="73.038" y1="272.043" y2="196.94" gradientTransform="translate(-4.1012061,5.4616772)" gradientUnits="userSpaceOnUse" xlink:href="#linearGradient3837"/><linearGradient id="linearGradient2047" x1="72.744" x2="73.038" y1="272.043" y2="196.94" gradientTransform="translate(-4.1012061,5.4616772)" gradientUnits="userSpaceOnUse" xlink:href="#linearGradient3837"/><linearGradient id="linearGradient2049" x1="72.744" x2="73.038" y1="272.043" y2="196.94" gradientTransform="translate(-4.1012061,5.4616772)" gradientUnits="userSpaceOnUse" xlink:href="#linearGradient3837"/><linearGradient id="linearGradient2051" x1="72.744" x2="73.038" y1="272.043" y2="196.94" gradientTransform="translate(-4.1012061,5.4616772)" gradientUnits="userSpaceOnUse" xlink:href="#linearGradient3837"/><linearGradient id="linearGradient2053" x1="72.744" x2="73.038" y1="272.043" y2="196.94" gradientTransform="translate(-4.1012061,5.4616772)" gradientUnits="userSpaceOnUse" xlink:href="#linearGradient3837"/><radialGradient id="radialGradient6133" cx="120.815" cy="380.254" r="155.755" fx="120.815" fy="380.254" gradientTransform="matrix(0.62519145,-0.4100565,0.49214634,0.75034946,-161.40245,178.54198)" gradientUnits="userSpaceOnUse" xlink:href="#linearGradient6127"/><linearGradient id="linearGradient6127"><stop id="stop6129" offset="0" style="stop-color:#00c0ff;stop-opacity:1"/><stop id="stop6131" offset="1" style="stop-color:#3486cb;stop-opacity:1"/></linearGradient><radialGradient id="radialGradient4565" cx="357.5" cy="439.172" r="129.875" fx="357.5" fy="439.172" gradientTransform="matrix(1,0,0,1.4036302,0,-177.2632)" gradientUnits="userSpaceOnUse" xlink:href="#linearGradient4555"/><linearGradient id="linearGradient4555"><stop id="stop4557" offset="0" style="stop-color:#898989;stop-opacity:1"/><stop id="stop4559" offset="1" style="stop-color:#505050;stop-opacity:1"/></linearGradient><radialGradient id="radialGradient6135" cx="357.5" cy="439.172" r="129.875" fx="357.5" fy="439.172" gradientTransform="matrix(1,0,0,1.4036302,0,-177.2632)" gradientUnits="userSpaceOnUse" xlink:href="#linearGradient4555"/><radialGradient id="radialGradient6137" cx="357.5" cy="439.172" r="129.875" fx="357.5" fy="439.172" gradientTransform="matrix(1,0,0,1.4036302,0,-177.2632)" gradientUnits="userSpaceOnUse" xlink:href="#linearGradient4555"/></defs><path id="path3924" d="m 442.88428,160.84389 23.48471,20.36727 c 2.79219,2.93915 2.97845,9.95135 1.03915,18.08115 l -10.39147,31.79789 c -2.64524,4.8496 -9.97581,7.27402 -9.97581,7.27402 0,0 2.60526,7.16885 1.87047,11.43062 L 431.03801,317.54719 211.9859,429.98286 c -4.40873,2.49828 -13.14978,2.5487 -15.79502,-0.83132 L 89.158777,307.57139 86.041338,242.93647 Z" style="fill:#000;fill-opacity:.397683;stroke:none"/><path id="path3920" d="m 423.82549,189.46728 c 9.40528,3.52698 10.28702,11.16877 10.58094,18.51665 l -17.6349,67.60046 -215.73364,110.51205 c -13.2323,6.03571 -18.60274,3.52699 -24.10104,-3.23306 L 74.360505,266.1791 69.657865,195.93341 c -0.207829,-7.48186 9.405281,-12.34443 9.405281,-12.34443 z" style="fill:#5c5d5d;fill-opacity:1;stroke:none"/><path id="path3884" d="m 435.28817,182.41332 -18.81056,76.41791 -220.73019,109.63031 c -6.23488,2.07829 -10.747,1.83787 -14.69576,-1.17566 L 77.887486,248.5442 71.12744,174.47761 Z" style="fill:url(#linearGradient3896);fill-opacity:1;stroke:none;stroke-width:1px;stroke-linecap:butt;stroke-linejoin:miter;stroke-opacity:1"/><path id="path3818" d="m 452.87691,144.92395 c 1.17566,3.96786 -9.35911,40.28156 -9.35911,40.28156 -2.49395,7.58577 -8.6705,10.28703 -8.6705,10.28703 L 201.3318,301.88978 c -7.17011,2.90961 -14.01254,1.62667 -16.45924,-1.0287 L 69.36395,185.64638 c -2.390037,-3.32527 -2.351321,-12.93226 -2.351321,-12.93226 z" style="fill:#868786;fill-opacity:1;stroke:none"/><path id="path3816" d="m 452.87691,144.92395 -10.53477,36.60762 c -1.36085,4.47005 -5.29048,6.17222 -5.29048,6.17222 l -235.13203,107.5729 c -10.70321,3.94876 -16.16532,-1.17566 -16.16532,-1.17566 L 69.657865,179.18025 c -3.11744,-2.90961 -2.645236,-6.46613 -2.645236,-6.46613 0,0 -1.053122,-22.11238 -0.03919,-45.77105 z" style="fill:url(#linearGradient3880);fill-opacity:1;stroke:none"/><ellipse id="path3902" cx="185.592" cy="226.65" rx="9.352" ry="26.81" transform="matrix(0.88331111,0,0,1.0869978,29.761821,1.555955)" style="fill:#ffffd0;fill-opacity:.944056;stroke:none;filter:url(#filter3916)"/><path id="path3814" d="M 327.42135,38.101033 452.04133,139.79564 c 3.52698,4.70264 -1.46957,7.64179 -1.46957,7.64179 l -246.00689,99.93111 c -5.77133,2.79957 -11.57831,0.83438 -14.69575,-1.76349 L 70.53961,135.68083 c -10.580941,-12.05052 5.29047,-17.04708 5.29047,-17.04708 L 311.25603,37.513203 c 9.40528,-3.820896 16.16532,0.58783 16.16532,0.58783 z" style="fill:url(#radialGradient3922);fill-opacity:1;stroke:none;stroke-width:1px;stroke-linecap:butt;stroke-linejoin:miter;stroke-opacity:1"/><g id="text3833" transform="matrix(1.0487801,-0.41271929,0.76389884,0.65287682,0,14)" style="font-style:normal;font-variant:normal;font-weight:400;font-stretch:normal;font-size:27.5245px;line-height:125%;font-family:'232MKSDRoundMedium';-inkscape-font-specification:'232MKSDRoundMedium';letter-spacing:0;word-spacing:0;fill:url(#linearGradient3843);fill-opacity:1;stroke:none;filter:url(#filter4143)"><path id="path4310" d="m 9.8964838,251.44327 c -1.6511043,3.04006 -3.9467671,5.43501 -6.8869951,7.18485 -2.94029722,1.74985 -6.1280177,2.62477 -9.5631709,2.62477 h -0.3961345 c -5.1527923,0 -9.5621783,-1.81637 -13.2281713,-5.44912 -3.666016,-3.63274 -5.499018,-8.02549 -5.499012,-13.17828 v -20.71088 c -6e-6,-5.15071 1.832996,-9.55959 5.499012,-13.22666 3.665993,-3.66696 8.075379,-5.50046 13.2281713,-5.50052 h 0.3961345 c 3.3686269,6e-5 6.52308417,0.87548 9.4633813,2.62628 2.9402281,1.75091 5.2358908,4.1131 6.8869951,7.08658 0.3971008,0.72579 0.5956718,1.51805 0.5957138,2.3768 -4.2e-5,1.3205 -0.4793342,2.46001 -1.4378777,3.41855 -0.9586246,0.95863 -2.0981402,1.43792 -3.4185501,1.43788 -1.9151893,4e-5 -3.3354259,-0.85875 -4.2607139,-2.57639 -1.71762205,-3.10451 -4.3272689,-4.6568 -7.8289485,-4.65684 h -0.3961345 c -2.4433557,4e-5 -4.5404473,0.87497 -6.2912813,2.62477 -1.750871,1.74988 -2.626297,3.87974 -2.626281,6.38955 v 20.71088 c -1.6e-5,2.44335 0.87541,4.54045 2.626281,6.29129 1.750834,1.75086 3.8479256,2.62629 6.2912813,2.62628 h 0.3961345 c 3.5016796,1e-5 6.11132645,-1.58554 7.8289485,-4.75664 0.925288,-1.71758 2.3455246,-2.57637 4.2607139,-2.57639 1.3869363,2e-5 2.559211,0.47881 3.5168278,1.43637 0.957535,0.95759 1.436323,2.13087 1.436366,3.51985 -4.3e-5,0.79228 -0.197606,1.55128 -0.5926902,2.27702 z" style="font-size:99.0881px;fill:url(#linearGradient2045)"/><path id="path4312" d="m 34.109071,221.22213 c -1.8e-5,1.58458 -0.577588,2.95492 -1.732711,4.11103 -1.155155,1.15619 -2.526001,1.73426 -4.112541,1.73423 -1.584549,3e-5 -2.954891,-0.57804 -4.11103,-1.73423 -1.156155,-1.15611 -1.734228,-2.52645 -1.734222,-4.11103 -6e-6,-1.65102 0.578067,-3.03799 1.734222,-4.16092 1.156139,-1.12284 2.526481,-1.68428 4.11103,-1.68433 1.58654,5e-5 2.957386,0.56149 4.112541,1.68433 1.155123,1.12293 1.732693,2.5099 1.732711,4.16092 z m 0,28.53681 c -1.8e-5,1.65107 -0.577588,3.03855 -1.732711,4.16244 -1.155155,1.12389 -2.526001,1.68584 -4.112541,1.68584 -1.584549,0 -2.954891,-0.56195 -4.11103,-1.68584 -1.156155,-1.12389 -1.734228,-2.51137 -1.734222,-4.16244 -6e-6,-1.58453 0.578067,-2.95487 1.734222,-4.11103 1.156139,-1.15613 2.526481,-1.73421 4.11103,-1.73422 1.58654,1e-5 2.957386,0.57809 4.112541,1.73422 1.155123,1.15616 1.732693,2.5265 1.732711,4.11103 z" style="font-size:99.0881px;fill:url(#linearGradient2047)"/><path id="path4314" d="m 83.876868,261.8486 c -4.3e-5,5.15277 -1.816918,9.56215 -5.450629,13.22817 -3.633788,3.66599 -8.027046,5.499 -13.179788,5.49902 h -0.396135 c -3.435203,-2e-5 -6.622419,-0.89158 -9.561659,-2.67467 -2.93927,-1.78312 -5.234428,-4.16144 -6.885483,-7.13496 -0.39715,-0.72575 -0.595721,-1.51802 -0.595714,-2.3768 -7e-6,-1.32247 0.478781,-2.46249 1.436366,-3.42007 0.957567,-0.95758 2.097586,-1.43636 3.420062,-1.43636 1.981666,0 3.435166,0.85879 4.360504,2.57639 1.651045,3.10455 4.259684,4.65683 7.825924,4.65684 h 0.396135 c 2.445321,-1e-5 4.542917,-0.87543 6.292793,-2.62628 1.749813,-1.75086 2.624735,-3.84795 2.624769,-6.29128 v -2.57638 c -3.4e-5,-0.33062 -0.164334,-0.4294 -0.4929,-0.29635 -2.642944,1.38698 -5.451162,2.08046 -8.424662,2.08046 h -0.396135 c -5.152792,0 -9.545546,-1.833 -13.178276,-5.49901 -3.632753,-3.666 -5.449124,-8.07538 -5.449118,-13.22817 v -20.11517 c -6e-6,-5.15273 1.816365,-9.56211 5.449118,-13.22817 3.63273,-3.66595 8.025484,-5.49895 13.178276,-5.49901 h 0.396135 c 5.152742,6e-5 9.546,1.83306 13.179788,5.49901 3.633711,3.66606 5.450586,8.07544 5.450629,13.22817 z m -9.712855,-19.51945 v -20.11517 c -3.4e-5,-2.50982 -0.874956,-4.64017 -2.624769,-6.39107 -1.749876,-1.75081 -3.847472,-2.62623 -6.292793,-2.62628 h -0.396135 c -2.443356,5e-5 -4.540447,0.87547 -6.291281,2.62628 -1.750871,1.7509 -2.626297,3.88125 -2.626281,6.39107 v 20.11517 c -1.6e-5,2.44335 0.87541,4.54044 2.626281,6.29128 1.750834,1.75087 3.847925,2.62629 6.291281,2.62628 h 0.396135 c 2.445321,1e-5 4.542917,-0.87541 6.292793,-2.62628 1.749813,-1.75084 2.624735,-3.84793 2.624769,-6.29128 z" style="font-size:99.0881px;fill:url(#linearGradient2049)"/><path id="path4316" d="m 133.61443,232.22016 c -4e-5,1.387 -0.4627,2.55978 -1.38798,3.51834 -0.92536,0.95861 -2.08151,1.4379 -3.46845,1.43788 h -22.49197 c -0.39716,2e-5 -0.59573,0.16533 -0.59571,0.49592 v 4.95319 c -2e-5,2.44335 0.87541,4.54045 2.62628,6.29129 1.75083,1.75086 3.84792,2.62629 6.29128,2.62628 h 0.39613 c 3.50168,1e-5 6.11133,-1.55228 7.82895,-4.65685 0.92529,-1.71758 2.34553,-2.57637 4.26072,-2.57639 1.38693,2e-5 2.54308,0.47881 3.46844,1.43637 0.92528,0.95759 1.38794,2.09761 1.38798,3.42006 -4e-5,0.85881 -0.19861,1.65107 -0.59571,2.37681 -1.58458,2.97353 -3.84698,5.33522 -6.7872,7.08506 -2.9403,1.74985 -6.12802,2.62477 -9.56318,2.62477 h -0.39613 c -5.15279,0 -9.54555,-1.81637 -13.17828,-5.44912 -3.632749,-3.63274 -5.44912,-8.02549 -5.449114,-13.17828 v -20.71088 c -6e-6,-5.15071 1.816365,-9.55959 5.449114,-13.22666 3.63273,-3.66696 8.02549,-5.50046 13.17828,-5.50052 h 0.39613 c 5.15275,6e-5 9.54601,1.83356 13.17979,5.50052 3.63371,3.66707 5.45059,8.07595 5.45063,13.22666 z m -9.71285,-5.34933 v -4.95622 c -4e-5,-2.50981 -0.87496,-4.63967 -2.62477,-6.38955 -1.74988,-1.7498 -3.84747,-2.62473 -6.2928,-2.62477 h -0.39613 c -2.44336,4e-5 -4.54045,0.87497 -6.29128,2.62477 -1.75087,1.74988 -2.6263,3.87974 -2.62628,6.38955 v 4.95622 c -2e-5,0.33065 0.19855,0.49596 0.59571,0.49593 h 17.04286 c 0.39509,3e-5 0.59265,-0.16528 0.59269,-0.49593 z" style="font-size:99.0881px;fill:url(#linearGradient2051)"/><path id="path4318" d="m 183.35199,242.62549 c -4e-5,5.15279 -1.81692,9.54554 -5.45063,13.17828 -3.63379,3.63275 -8.02705,5.44912 -13.17979,5.44912 h -0.39613 c -5.1528,0 -9.54555,-1.81637 -13.17828,-5.44912 -3.63275,-3.63274 -5.44912,-8.02549 -5.44912,-13.17828 v -20.71088 c 0,-5.15071 1.81637,-9.55959 5.44912,-13.22666 3.63273,-3.66696 8.02548,-5.50046 13.17828,-5.50052 h 0.39613 c 5.15274,6e-5 9.546,1.83356 13.17979,5.50052 3.63371,3.66707 5.45059,8.07595 5.45063,13.22666 z m -9.71286,0 v -20.71088 c -3e-5,-2.50981 -0.87495,-4.63967 -2.62477,-6.38955 -1.74987,-1.7498 -3.84747,-2.62473 -6.29279,-2.62477 h -0.39613 c -2.44336,4e-5 -4.54045,0.87497 -6.29128,2.62477 -1.75088,1.74988 -2.6263,3.87974 -2.62629,6.38955 v 20.71088 c -1e-5,2.44335 0.87541,4.54045 2.62629,6.29129 1.75083,1.75086 3.84792,2.62629 6.29128,2.62628 h 0.39613 c 2.44532,1e-5 4.54292,-0.87542 6.29279,-2.62628 1.74982,-1.75084 2.62474,-3.84794 2.62477,-6.29129 z" style="font-size:99.0881px;fill:url(#linearGradient2053)"/></g><g id="g157" transform="translate(23.914874,-84.738488)"><path style="opacity:.915033;fill:url(#radialGradient6133);fill-opacity:1;stroke:#546cbf;stroke-width:3.1252;stroke-linecap:butt;stroke-miterlimit:4;stroke-dasharray:none;stroke-opacity:1" id="path4571" d="m 53.302303,271.79074 c -26.1162,0.24119 -45.8291492,25.27246 -45.8291492,52.10199 v 128.66335 c 0,29.10808 23.4386242,52.5467 52.5467002,52.5467 H 188.6832 c 26.82952,0 51.86079,-19.71295 52.10198,-45.82915 C 241.73293,356.65218 155.92375,270.84299 53.302303,271.79074 Z"/><g id="g4019" transform="matrix(0.50408368,0,0,0.50408368,-73.375097,175.04359)" style="opacity:.888889;fill:url(#radialGradient4565);fill-opacity:1"><path id="path4009" d="m 311.40625,414.46875 c -43.80747,32.9716 -76.51103,111.56242 -83.78125,207 h 259.75 c -7.27022,-95.43758 -39.97378,-174.0284 -83.78125,-207 -13.7999,7.16781 -29.46883,11.21875 -46.09375,11.21875 -16.62492,0 -32.29385,-4.05094 -46.09375,-11.21875 z" style="fill:url(#radialGradient6135);fill-opacity:1;stroke:none"/><circle id="path4011" cx="357.495" cy="233.201" r="68.658" transform="translate(0,92.33324)" style="fill:url(#radialGradient6137);fill-opacity:1;stroke:none"/></g></g></svg>
