<svg xmlns="http://www.w3.org/2000/svg" xmlns:svg="http://www.w3.org/2000/svg" id="svg2" width="24" height="24" fill="#000" version="1.1" viewBox="0 0 24 24"><metadata id="metadata12"/><path id="path4" d="M 0,0 24,0 24,24 0,24 Z" style="fill:none"/><path id="path6" d="m 10.115234,2.75 c -1.1099991,0 -1.9999996,0.89 -1.9999996,2 l 0,2 -6,0 0,13 c 0,1.11 0.89,2 2,2 l 15.9999996,0 c 1.11,0 2,-0.89 2,-2 l 0,-13 -6,0 0,-2 c 0,-1.11 -0.89,-2 -2,-2 z m 0,2 4,0 0,2 -4,0 z m 0.673828,3.2363281 c 2.518689,0 4.560547,2.0418569 4.560547,4.5605469 0,1.129551 -0.414009,2.166991 -1.101562,2.966797 l 0.197265,0.189453 0.552735,0 3.501953,3.507813 -1.044922,1.046874 -3.507812,-3.501953 0,-0.554687 -0.189454,-0.195313 c -0.799806,0.687553 -1.839199,1.101563 -2.96875,1.101563 -2.5186896,0 -4.5605464,-2.041858 -4.5605464,-4.560547 0,-2.51869 2.0418568,-4.5605469 4.5605464,-4.5605469 z m 1.6e-4,1.9185079 c -1.4613446,0 -2.6402454,1.180535 -2.6402454,2.641879 0,1.461344 1.1789008,2.640246 2.6402454,2.640246 1.461344,0 2.64188,-1.178902 2.64188,-2.640246 0,-1.461344 -1.180536,-2.641879 -2.64188,-2.641879 z"/></svg>