<svg xmlns="http://www.w3.org/2000/svg" xmlns:svg="http://www.w3.org/2000/svg" id="svg2" width="229.256" height="41.33" version="1.1" viewBox="0 0 214.928 38.747"><metadata id="metadata7"/><g id="layer1" transform="translate(-78.919996,-407.80006)"><g id="g4328"><circle style="color:#000;display:inline;overflow:visible;visibility:visible;opacity:1;fill:#ffb738;fill-opacity:1;fill-rule:evenodd;stroke:#9c8c0a;stroke-width:2.5;stroke-linecap:round;stroke-linejoin:round;stroke-miterlimit:4;stroke-dasharray:none;stroke-dashoffset:0;stroke-opacity:1;marker:none;marker-start:none;marker-mid:none;marker-end:none" id="path4320-2" cx="98.214" cy="427.253" r="18.044"/><path style="fill:#000;fill-rule:nonzero;stroke:none;stroke-width:2.5;stroke-miterlimit:4;stroke-dasharray:none" id="path8614-45" d="m 95.700986,421.23625 c 0,2.5 -1.125,4.5 -2.5,4.5 -1.375,0 -2.5,-2 -2.5,-4.5 0,-2.5 1.125,-4.5 2.5,-4.5 1.375,0 2.5,2 2.5,4.5 z"/><path style="fill:#000;fill-rule:nonzero;stroke:none;stroke-width:2.5;stroke-miterlimit:4;stroke-dasharray:none" id="path8616-2" d="m 104.99134,421.23625 c 0,2.5 -1.125,4.5 -2.5,4.5 -1.375,0 -2.499999,-2 -2.499999,-4.5 0,-2.5 1.124999,-4.5 2.499999,-4.5 1.375,0 2.5,2 2.5,4.5 z"/><path style="color:#000;display:inline;overflow:visible;visibility:visible;opacity:1;fill:#000;fill-opacity:1;fill-rule:evenodd;stroke:none;stroke-width:1.51800001;stroke-linecap:round;stroke-linejoin:round;stroke-miterlimit:4;stroke-dasharray:none;stroke-dashoffset:0;stroke-opacity:1;marker:none;marker-start:none;marker-mid:none;marker-end:none" id="path4320-2-9" d="m 108.22625,430.18829 c 0,5.52946 -4.48251,10.01197 -10.011959,10.01197 -5.529453,0 -10.011962,-4.48251 -10.011962,-10.01197 20.023921,0 0,0 20.023921,0 z"/></g><g id="g4334"><circle style="color:#000;display:inline;overflow:visible;visibility:visible;opacity:1;fill:#ff7338;fill-opacity:1;fill-rule:evenodd;stroke:#9c560a;stroke-width:2.5;stroke-linecap:round;stroke-linejoin:round;stroke-miterlimit:4;stroke-dasharray:none;stroke-dashoffset:0;stroke-opacity:1;marker:none;marker-start:none;marker-mid:none;marker-end:none" id="path4320-7" cx="156.994" cy="427.13" r="18.044"/><path style="fill:#000;fill-rule:nonzero;stroke:none;stroke-width:2.5;stroke-miterlimit:4;stroke-dasharray:none" id="path8614-0" d="m 154.48074,421.11369 c 0,2.5 -1.125,4.5 -2.5,4.5 -1.375,0 -2.5,-2 -2.5,-4.5 0,-2.5 1.125,-4.5 2.5,-4.5 1.375,0 2.5,2 2.5,4.5 z"/><path style="fill:#000;fill-rule:nonzero;stroke:none;stroke-width:2.5;stroke-miterlimit:4;stroke-dasharray:none" id="path8616-44" d="m 163.77109,421.11369 c 0,2.5 -1.125,4.5 -2.5,4.5 -1.375,0 -2.5,-2 -2.5,-4.5 0,-2.5 1.125,-4.5 2.5,-4.5 1.375,0 2.5,2 2.5,4.5 z"/><path style="color:#000;display:inline;overflow:visible;visibility:visible;opacity:1;fill:#000;fill-opacity:1;fill-rule:evenodd;stroke:none;stroke-width:1.51800001;stroke-linecap:round;stroke-linejoin:round;stroke-miterlimit:4;stroke-dasharray:none;stroke-dashoffset:0;stroke-opacity:1;marker:none;marker-start:none;marker-mid:none;marker-end:none" id="path4320-2-9-0" d="m 167.0953,430.18694 c 0,5.52946 -4.48251,10.01197 -10.01196,10.01197 -5.52945,0 -10.01196,-4.48251 -10.01196,-10.01197 20.02392,0 0,0 20.02392,0 z"/></g><g id="g4340"><circle style="color:#000;display:inline;overflow:visible;visibility:visible;opacity:1;fill:#3880ff;fill-opacity:1;fill-rule:evenodd;stroke:#0a169c;stroke-width:2.5;stroke-linecap:round;stroke-linejoin:round;stroke-miterlimit:4;stroke-dasharray:none;stroke-dashoffset:0;stroke-opacity:1;marker:none;marker-start:none;marker-mid:none;marker-end:none" id="path4320-4" cx="215.774" cy="427.24" r="18.044"/><path style="fill:#000;fill-rule:nonzero;stroke:none;stroke-width:2.5;stroke-miterlimit:4;stroke-dasharray:none" id="path8614-4" d="m 213.26049,421.22344 c 0,2.5 -1.125,4.5 -2.5,4.5 -1.375,0 -2.5,-2 -2.5,-4.5 0,-2.5 1.125,-4.5 2.5,-4.5 1.375,0 2.5,2 2.5,4.5 z"/><path style="fill:#000;fill-rule:nonzero;stroke:none;stroke-width:2.5;stroke-miterlimit:4;stroke-dasharray:none" id="path8616-4" d="m 222.55085,421.22344 c 0,2.5 -1.125,4.5 -2.5,4.5 -1.375,0 -2.5,-2 -2.5,-4.5 0,-2.5 1.125,-4.5 2.5,-4.5 1.375,0 2.5,2 2.5,4.5 z"/><path style="color:#000;display:inline;overflow:visible;visibility:visible;opacity:1;fill:#000;fill-opacity:1;fill-rule:evenodd;stroke:none;stroke-width:1.51800001;stroke-linecap:round;stroke-linejoin:round;stroke-miterlimit:4;stroke-dasharray:none;stroke-dashoffset:0;stroke-opacity:1;marker:none;marker-start:none;marker-mid:none;marker-end:none" id="path4320-2-9-0-6" d="m 205.76184,438.29325 c 0,-5.52946 4.48251,-10.01197 10.01196,-10.01197 5.52945,0 10.01196,4.48251 10.01196,10.01197 -20.02392,0 0,0 -20.02392,0 z"/></g><g id="g4346"><g id="g4280" transform="translate(117.32143,-48.75)"><circle id="path4320" cx="157.232" cy="475.844" r="18.044" style="color:#000;display:inline;overflow:visible;visibility:visible;opacity:1;fill:#929292;fill-opacity:1;fill-rule:evenodd;stroke:#2e2e2e;stroke-width:2.5;stroke-linecap:round;stroke-linejoin:round;stroke-miterlimit:4;stroke-dasharray:none;stroke-dashoffset:0;stroke-opacity:1;marker:none;marker-start:none;marker-mid:none;marker-end:none"/><path id="path8614" d="m 154.71883,469.82806 c 0,2.5 -1.125,4.5 -2.5,4.5 -1.375,0 -2.5,-2 -2.5,-4.5 0,-2.5 1.125,-4.5 2.5,-4.5 1.375,0 2.5,2 2.5,4.5 z" style="fill:#000;fill-rule:nonzero;stroke:none;stroke-width:2.5;stroke-miterlimit:4;stroke-dasharray:none"/><path id="path8616" d="m 164.00918,469.82806 c 0,2.5 -1.125,4.5 -2.5,4.5 -1.375,0 -2.5,-2 -2.5,-4.5 0,-2.5 1.125,-4.5 2.5,-4.5 1.375,0 2.5,2 2.5,4.5 z" style="fill:#000;fill-rule:nonzero;stroke:none;stroke-width:2.5;stroke-miterlimit:4;stroke-dasharray:none"/></g><path style="color:#000;display:inline;overflow:visible;visibility:visible;opacity:1;fill:#000;fill-opacity:1;fill-rule:evenodd;stroke:none;stroke-width:1.51800001;stroke-linecap:round;stroke-linejoin:round;stroke-miterlimit:4;stroke-dasharray:none;stroke-dashoffset:0;stroke-opacity:1;marker:none;marker-start:none;marker-mid:none;marker-end:none" id="path4320-2-9-0-6-1" d="m 264.5416,438.3028 c 0,-5.52946 4.48251,-10.01197 10.01196,-10.01197 5.52945,0 10.01196,4.48251 10.01196,10.01197 -20.02392,0 0,0 -20.02392,0 z"/></g></g></svg>
