<svg xmlns="http://www.w3.org/2000/svg" xmlns:svg="http://www.w3.org/2000/svg" id="svg2" width="42.667" height="42.667" version="1.1" viewBox="0 0 40 40"><defs id="defs4"><marker id="TriangleOutL" orient="auto" refX="0" refY="0" style="overflow:visible"><path id="path4842" d="m 5.77,0 -8.65,5 0,-10 8.65,5 z" transform="scale(0.8,0.8)" style="fill:#269301;fill-opacity:1;fill-rule:evenodd;stroke:#1a6800;stroke-width:1pt;stroke-opacity:1"/></marker><marker id="Arrow2Lstart" orient="auto" refX="0" refY="0" style="overflow:visible"><path id="path4718" d="M 8.7185878,4.0337352 -2.2072895,0.01601326 8.7185884,-4.0017078 c -1.7454984,2.3720609 -1.7354408,5.6174519 -6e-7,8.035443 z" transform="matrix(1.1,0,0,1.1,1.1,0)" style="fill:#000;fill-opacity:1;fill-rule:evenodd;stroke:#fa0606;stroke-width:.625;stroke-linejoin:round;stroke-opacity:1"/></marker><marker id="Arrow2Lend" orient="auto" refX="0" refY="0" style="overflow:visible"><path id="path4721" d="M 8.7185878,4.0337352 -2.2072895,0.01601326 8.7185884,-4.0017078 c -1.7454984,2.3720609 -1.7354408,5.6174519 -6e-7,8.035443 z" transform="matrix(-1.1,0,0,-1.1,-1.1,0)" style="fill:#000;fill-opacity:1;fill-rule:evenodd;stroke:#fa0606;stroke-width:.625;stroke-linejoin:round;stroke-opacity:1"/></marker><marker id="Arrow1Lend" orient="auto" refX="0" refY="0" style="overflow:visible"><path id="path4703" d="M 0,0 5,-5 -12.5,0 5,5 0,0 Z" transform="matrix(-0.8,0,0,-0.8,-10,0)" style="fill:#000;fill-opacity:1;fill-rule:evenodd;stroke:#000;stroke-width:1pt;stroke-opacity:1"/></marker><marker id="Arrow1Lstart" orient="auto" refX="0" refY="0" style="overflow:visible"><path id="path4700" d="M 0,0 5,-5 -12.5,0 5,5 0,0 Z" transform="matrix(0.8,0,0,0.8,10,0)" style="fill:#000;fill-opacity:1;fill-rule:evenodd;stroke:#000;stroke-width:1pt;stroke-opacity:1"/></marker></defs><metadata id="metadata7"/><g id="layer1" transform="translate(-521.34232,-860.44361)"><g id="g4621" transform="translate(-50.558135,-35.355339)"><rect style="opacity:1;fill:none;fill-opacity:1;stroke:none;stroke-width:1.86992466;stroke-linecap:square;stroke-linejoin:miter;stroke-miterlimit:4;stroke-dasharray:none;stroke-dashoffset:0;stroke-opacity:1" id="rect8949" width="40" height="40" x="571.9" y="895.799" rx="0" ry="0"/><path style="fill:#269301;fill-opacity:1;fill-rule:evenodd;stroke:#1a6800;stroke-width:2.5;stroke-linecap:butt;stroke-linejoin:round;stroke-miterlimit:4;stroke-dasharray:none;stroke-opacity:1" id="path8935" d="m 582.01139,908.49376 9.88942,9.88943 9.88942,-9.88943 -6.36058,0 0,-11.10156 -6.85009,0 0,11.10156 z"/><path style="fill:#804000;fill-opacity:1;fill-rule:evenodd;stroke:#351a00;stroke-width:2.5;stroke-linecap:butt;stroke-linejoin:round;stroke-miterlimit:4;stroke-dasharray:none;stroke-opacity:1" id="path8947" d="m 583.17599,921.91203 17.44964,0 7.09718,12.29267 -31.64466,10e-4 z"/></g></g></svg>